Coordinates
version=1
nRows=32
nColumns=12
inDegrees=yes

Units are S.I. units (second, meters, Newtons, ...)
Angles are in degrees

endheader
time	SC_y	SC_z	SC_x	AC_y	AC_z	AC_x	GH_y	GH_z	GH_yy	EL_x	PS_y
       0.0               -16.0          21.26           39.4          61.03         -10.33         -4.208         -15.78          29.48          53.89          19.67          71.25
   0.01924               -16.0          21.26           39.4          61.03         -10.33         -4.209         -15.78          29.49          53.88          19.67          71.25
   0.03849               -16.0          21.27           39.4          61.02         -10.33         -4.209         -15.78          29.49          53.87          19.67          71.25
   0.05773              -16.01          21.27          39.41          61.02         -10.32         -4.209         -15.78           29.5          53.86          19.67          71.25
   0.07697              -16.01          21.27          39.41          61.02         -10.32          -4.21         -15.78          29.51          53.84          19.67          71.25
   0.09621              -16.01          21.27          39.41          61.01         -10.32          -4.21         -15.78          29.52          53.83          19.67          71.25
    0.1155              -16.01          21.27          39.41          61.01         -10.31         -4.211         -15.78          29.53          53.82          19.67          71.25
    0.1347              -16.02          21.27          39.41           61.0         -10.31         -4.211         -15.77          29.54           53.8          19.67          71.25
    0.1539              -16.02          21.27          39.41          60.99         -10.31         -4.212         -15.77          29.55          53.79          19.67          71.25
    0.1732              -16.02          21.27          39.42          60.99          -10.3         -4.213         -15.77          29.56          53.77          19.67          71.25
    0.1924              -16.03          21.27          39.42          60.98          -10.3         -4.213         -15.77          29.57          53.75          19.67          71.25
    0.2117              -16.03          21.28          39.42          60.97         -10.29         -4.214         -15.77          29.59          53.73          19.67          71.25
    0.2309              -16.04          21.28          39.42          60.97         -10.29         -4.215         -15.77           29.6          53.71          19.67          71.25
    0.2502              -16.04          21.28          39.42          60.96         -10.28         -4.216         -15.77          29.62          53.69          19.67          71.25
    0.2694              -16.05          21.28          39.43          60.95         -10.28         -4.217         -15.77          29.64          53.67          19.67          71.24
    0.2886              -16.06          21.28          39.43          60.94         -10.27         -4.218         -15.77          29.65          53.64          19.67          71.24
    0.3079              -16.06          21.29          39.43          60.93         -10.27         -4.219         -15.77          29.67          53.61          19.67          71.24
    0.3271              -16.07          21.29          39.44          60.92         -10.26          -4.22         -15.77           29.7          53.58          19.67          71.24
    0.3464              -16.08          21.29          39.44           60.9         -10.25         -4.221         -15.77          29.72          53.55          19.67          71.24
    0.3656              -16.09          21.29          39.44          60.89         -10.24         -4.223         -15.77          29.75          53.51          19.67          71.24
    0.3849              -16.09           21.3          39.45          60.87         -10.23         -4.225         -15.77          29.78          53.47          19.67          71.24
    0.4041              -16.11           21.3          39.45          60.86         -10.22         -4.226         -15.76          29.81          53.42          19.66          71.24
    0.4233              -16.12           21.3          39.46          60.84         -10.21         -4.228         -15.76          29.84          53.37          19.66          71.24
    0.4426              -16.13          21.31          39.47          60.82          -10.2          -4.23         -15.76          29.88          53.32          19.66          71.23
    0.4618              -16.14          21.31          39.47          60.79         -10.18         -4.233         -15.76          29.92          53.26          19.66          71.23
    0.4811              -16.16          21.32          39.48          60.77         -10.17         -4.235         -15.76          29.97          53.19          19.66          71.23
    0.5003              -16.18          21.32          39.49          60.74         -10.15         -4.238         -15.76          30.03          53.11          19.66          71.23
    0.5196               -16.2          21.33           39.5          60.71         -10.13         -4.242         -15.75          30.09          53.03          19.66          71.22
    0.5388              -16.22          21.34          39.51          60.67          -10.1         -4.246         -15.75          30.16          52.93          19.65          71.22
     0.558              -16.24          21.35          39.52          60.63         -10.08          -4.25         -15.75          30.23          52.82          19.65          71.22
    0.5773              -16.27          21.35          39.54          60.58         -10.05         -4.255         -15.74          30.32          52.69          19.65          71.21
    0.5965              -16.31          21.37          39.55          60.52         -10.01         -4.261         -15.74          30.42          52.55          19.64          71.21
